# WaveFront *.obj file (generated by Autodesk ATF)

mtllib roomNumPanel.mtl

g Solid1

v -0.317692 0.000000 -1.031966
v -0.317692 0.000000 -0.060000
v -0.317692 0.100000 -1.031966
v -0.317692 0.100000 -0.060000
v -0.315647 0.000000 -1.047495
v -0.315647 0.000000 -0.044471
v -0.315647 0.100000 -1.047495
v -0.315647 0.100000 -0.044471
v -0.309653 0.000000 -1.061966
v -0.309653 0.000000 -0.030000
v -0.309653 0.100000 -1.061966
v -0.309653 0.100000 -0.030000
v -0.300118 0.000000 -1.074393
v -0.300118 0.000000 -0.017574
v -0.300118 0.100000 -1.074393
v -0.300118 0.100000 -0.017574
v -0.287692 0.000000 -1.083928
v -0.287692 0.000000 -0.008038
v -0.287692 0.100000 -1.083928
v -0.287692 0.100000 -0.008038
v -0.273221 0.000000 -1.089922
v -0.273221 0.000000 -0.002044
v -0.273221 0.100000 -1.089922
v -0.273221 0.100000 -0.002044
v -0.257692 0.000000 -1.091966
v -0.257692 0.000000 0.000000
v -0.257692 0.100000 -1.091966
v -0.257692 0.100000 0.000000
v 0.000000 0.000000 -1.091966
v 0.000000 0.000000 0.000000
v 0.000000 0.100000 -1.091966
v 0.000000 0.100000 0.000000
vt -0.254000 0.119695 0.000000
vt -0.254000 0.079796 0.000000
vt -0.254000 0.039898 0.000000
vt -0.254000 0.000000 0.000000
vt -0.254000 -0.039898 0.000000
vt -0.254000 -0.079796 0.000000
vt -0.254000 -0.119695 0.000000
vt -0.000000 -0.119695 0.000000
vt -0.000000 -0.079796 0.000000
vt -0.000000 -0.039898 0.000000
vt -0.000000 0.000000 0.000000
vt -0.000000 0.039898 0.000000
vt -0.000000 0.079796 0.000000
vt -0.000000 0.119695 0.000000
vt 0.152400 0.254000 0.000000
vt 0.152400 0.000000 0.000000
vt 2.621194 0.000000 0.000000
vt 2.621194 0.254000 0.000000
vt 1.234397 -0.403469 0.000000
vt 1.273841 -0.398276 0.000000
vt 1.310597 -0.383051 0.000000
vt 1.342160 -0.358832 0.000000
vt 1.366379 -0.327269 0.000000
vt 1.381604 -0.290513 0.000000
vt 1.386797 -0.251069 0.000000
vt 1.386797 0.403469 0.000000
vt -1.386797 0.403469 0.000000
vt -1.386797 -0.251069 0.000000
vt -1.381604 -0.290513 0.000000
vt -1.366379 -0.327269 0.000000
vt -1.342160 -0.358832 0.000000
vt -1.310597 -0.383051 0.000000
vt -1.273841 -0.398276 0.000000
vt -1.234397 -0.403469 0.000000
vt -0.254000 0.119695 0.000000
vt -0.254000 0.079796 0.000000
vt -0.254000 0.039898 0.000000
vt -0.254000 0.000000 0.000000
vt -0.254000 -0.039898 0.000000
vt -0.254000 -0.079796 0.000000
vt -0.254000 -0.119695 0.000000
vt -0.000000 -0.119695 0.000000
vt -0.000000 -0.079796 0.000000
vt -0.000000 -0.039898 0.000000
vt -0.000000 0.000000 0.000000
vt -0.000000 0.039898 0.000000
vt -0.000000 0.079796 0.000000
vt -0.000000 0.119695 0.000000
vt 0.000000 0.000000 0.000000
vt 2.773594 0.000000 0.000000
vt 2.773594 0.254000 0.000000
vt 0.000000 0.254000 0.000000
vt 0.152400 0.254000 0.000000
vt 0.152400 0.000000 0.000000
vt 0.806938 0.000000 0.000000
vt 0.806938 0.254000 0.000000
vt 0.654537 0.000000 0.000000
vt 0.654537 0.254000 0.000000
vt 0.000000 0.254000 0.000000
vt 0.000000 0.000000 0.000000
vt -1.386797 -0.251069 0.000000
vt -1.381604 -0.290513 0.000000
vt -1.366379 -0.327269 0.000000
vt -1.342160 -0.358832 0.000000
vt -1.310597 -0.383051 0.000000
vt -1.273841 -0.398276 0.000000
vt -1.234397 -0.403469 0.000000
vt 1.234397 -0.403469 0.000000
vt 1.273841 -0.398276 0.000000
vt 1.310597 -0.383051 0.000000
vt 1.342160 -0.358832 0.000000
vt 1.366379 -0.327269 0.000000
vt 1.381604 -0.290513 0.000000
vt 1.386797 -0.251069 0.000000
vt 1.386797 0.403469 0.000000
vt -1.386797 0.403469 0.000000
vn -2.540000 0.000000 0.000000
vn -2.453452 0.000000 -0.657400
vn -2.199704 0.000000 -1.270000
vn -1.796051 0.000000 -1.796051
vn -1.270000 0.000000 -2.199704
vn -0.657400 0.000000 -2.453452
vn 0.000000 0.000000 -2.540000
vn 0.000000 0.000000 -2.540000
vn -0.657400 0.000000 -2.453452
vn -1.270000 0.000000 -2.199704
vn -1.796051 0.000000 -1.796051
vn -2.199704 0.000000 -1.270000
vn -2.453452 0.000000 -0.657400
vn -2.540000 0.000000 0.000000
vn -2.540000 0.000000 0.000000
vn -2.540000 0.000000 0.000000
vn -2.540000 0.000000 0.000000
vn -2.540000 0.000000 0.000000
vn 0.000000 -2.540000 0.000000
vn 0.000000 -2.540000 0.000000
vn 0.000000 -2.540000 0.000000
vn 0.000000 -2.540000 0.000000
vn 0.000000 -2.540000 0.000000
vn 0.000000 -2.540000 0.000000
vn 0.000000 -2.540000 0.000000
vn 0.000000 -2.540000 0.000000
vn 0.000000 -2.540000 0.000000
vn 0.000000 -2.540000 0.000000
vn 0.000000 -2.540000 0.000000
vn 0.000000 -2.540000 0.000000
vn 0.000000 -2.540000 0.000000
vn 0.000000 -2.540000 0.000000
vn 0.000000 -2.540000 0.000000
vn 0.000000 -2.540000 0.000000
vn 0.000000 0.000000 2.540000
vn -0.657400 0.000000 2.453452
vn -1.270000 0.000000 2.199704
vn -1.796051 0.000000 1.796051
vn -2.199704 0.000000 1.270000
vn -2.453452 0.000000 0.657400
vn -2.540000 0.000000 0.000000
vn -2.540000 0.000000 0.000000
vn -2.453452 0.000000 0.657400
vn -2.199704 0.000000 1.270000
vn -1.796051 0.000000 1.796051
vn -1.270000 0.000000 2.199704
vn -0.657400 0.000000 2.453452
vn 0.000000 0.000000 2.540000
vn 2.540000 0.000000 0.000000
vn 2.540000 0.000000 0.000000
vn 2.540000 0.000000 0.000000
vn 2.540000 0.000000 0.000000
vn 0.000000 0.000000 2.540000
vn 0.000000 0.000000 2.540000
vn 0.000000 0.000000 2.540000
vn 0.000000 0.000000 2.540000
vn 0.000000 0.000000 -2.540000
vn 0.000000 0.000000 -2.540000
vn 0.000000 0.000000 -2.540000
vn 0.000000 0.000000 -2.540000
vn 0.000000 2.540000 0.000000
vn 0.000000 2.540000 0.000000
vn 0.000000 2.540000 0.000000
vn 0.000000 2.540000 0.000000
vn 0.000000 2.540000 0.000000
vn 0.000000 2.540000 0.000000
vn 0.000000 2.540000 0.000000
vn 0.000000 2.540000 0.000000
vn 0.000000 2.540000 0.000000
vn 0.000000 2.540000 0.000000
vn 0.000000 2.540000 0.000000
vn 0.000000 2.540000 0.000000
vn 0.000000 2.540000 0.000000
vn 0.000000 2.540000 0.000000
vn 0.000000 2.540000 0.000000
vn 0.000000 2.540000 0.000000
usemtl 191,191,191
f 3/1/1 7/2/2 1/14/14
f 1/14/14 7/2/2 5/13/13
f 5/13/13 7/2/2 11/3/3
f 5/13/13 11/3/3 9/12/12
f 9/12/12 11/3/3 15/4/4
f 9/12/12 15/4/4 13/11/11
f 13/11/11 15/4/4 19/5/5
f 13/11/11 19/5/5 17/10/10
f 17/10/10 19/5/5 23/6/6
f 17/10/10 23/6/6 21/9/9
f 21/9/9 23/6/6 27/7/7
f 21/9/9 27/7/7 25/8/8
f 1/16/16 2/17/17 3/15/15
f 3/15/15 2/17/17 4/18/18
f 5/20/20 9/21/21 1/19/19
f 1/19/19 9/21/21 13/22/22
f 1/19/19 13/22/22 17/23/23
f 17/23/23 21/24/24 1/19/19
f 1/19/19 21/24/24 25/25/25
f 1/19/19 25/25/25 26/28/28
f 26/28/28 25/25/25 30/27/27
f 30/27/27 25/25/25 29/26/26
f 1/19/19 26/28/28 2/34/34
f 2/34/34 26/28/28 22/29/29
f 2/34/34 22/29/29 18/30/30
f 18/30/30 14/31/31 2/34/34
f 2/34/34 14/31/31 10/32/32
f 2/34/34 10/32/32 6/33/33
f 28/35/35 24/36/36 26/48/48
f 26/48/48 24/36/36 22/47/47
f 22/47/47 24/36/36 20/37/37
f 22/47/47 20/37/37 18/46/46
f 18/46/46 20/37/37 16/38/38
f 18/46/46 16/38/38 14/45/45
f 14/45/45 16/38/38 12/39/39
f 14/45/45 12/39/39 10/44/44
f 10/44/44 12/39/39 8/40/40
f 10/44/44 8/40/40 6/43/43
f 6/43/43 8/40/40 4/41/41
f 6/43/43 4/41/41 2/42/42
f 30/49/49 29/50/50 32/52/52
f 32/52/52 29/50/50 31/51/51
f 26/54/54 30/55/55 28/53/53
f 28/53/53 30/55/55 32/56/56
f 27/58/58 31/59/59 25/57/57
f 25/57/57 31/59/59 29/60/60
f 23/62/62 3/67/67 27/61/61
f 27/61/61 3/67/67 4/68/68
f 27/61/61 4/68/68 28/74/74
f 28/74/74 4/68/68 24/73/73
f 24/73/73 4/68/68 20/72/72
f 20/72/72 4/68/68 16/71/71
f 16/71/71 4/68/68 12/70/70
f 12/70/70 4/68/68 8/69/69
f 23/62/62 19/63/63 3/67/67
f 3/67/67 19/63/63 15/64/64
f 3/67/67 15/64/64 11/65/65
f 11/65/65 7/66/66 3/67/67
f 32/75/75 31/76/76 28/74/74
f 28/74/74 31/76/76 27/61/61

# 32 vertices
# 76 texture params
# 76 normals
# 60 facets

# 1 groups
